# xmcd
# 
# Track frame offsets:
#     150
#     14330
#     29260
#     43115
#     52855
#     64790
#     82295
#     95642
#     114782
#     130307
#     141227
#     152337
# 
# Disc length: 2185
# 
# Revision: 3
# Processed by: cddbd v1.5.2PL0 Copyright (c) Steve Scherf et al.
# Submitted via: fre:ac v1.0.31
# 
DISCID=9a08870c
DTITLE=Chico Buarque - Chico Buarque De Hollanda Volume 3
DYEAR=1968
DGENRE=MPB
TTITLE0=Ela Desatinou
TTITLE1=Retrato Em Preto E Branco
TTITLE2=Januária
TTITLE3=Desencontro
TTITLE4=Carolina
TTITLE5=Roda Viva
TTITLE6=O Velho
TTITLE7=Até Pensei
TTITLE8=Sem Fantasia
TTITLE9=Até Segunda-Feira
TTITLE10=Funeral De Um Lavrador
TTITLE11=Tema Para Morte E Vida Severina
EXTD=
EXTT0=
EXTT1=
EXTT2=
EXTT3=
EXTT4=
EXTT5=
EXTT6=
EXTT7=
EXTT8=
EXTT9=
EXTT10=
EXTT11=
PLAYORDER=
